<svg xmlns="http://www.w3.org/2000/svg" width="1180" height="720" viewBox="0 0 1180 720">
  <defs>
    <style>
      .title {
        font-family: "Microsoft YaHei","Noto Sans SC",Arial,sans-serif;
        font-size: 24px;
        font-weight: 700;
        fill: #000;
      }
      .entity {
        fill: #fff;
        stroke: #000;
        stroke-width: 2;
      }
      .relation {
        fill: #fff;
        stroke: #000;
        stroke-width: 2;
      }
      .name {
        font-family: "Microsoft YaHei","Noto Sans SC",Arial,sans-serif;
        font-size: 17px;
        fill: #000;
      }
      .card {
        font-family: "Microsoft YaHei","Noto Sans SC",Arial,sans-serif;
        font-size: 18px;
        font-weight: 700;
        fill: #000;
      }
      .line {
        stroke: #000;
        stroke-width: 2;
        fill: none;
      }
    </style>
  </defs>

  <text x="590" y="42" text-anchor="middle" class="title">系统 E-R 图</text>

  <!-- 实体 -->
  <rect x="485" y="92" width="210" height="64" class="entity"/>
  <text x="590" y="131" text-anchor="middle" class="name">用户</text>

  <rect x="110" y="286" width="200" height="64" class="entity"/>
  <text x="210" y="325" text-anchor="middle" class="name">文件夹</text>

  <rect x="492" y="286" width="196" height="64" class="entity"/>
  <text x="590" y="325" text-anchor="middle" class="name">周记录</text>

  <rect x="875" y="286" width="200" height="64" class="entity"/>
  <text x="975" y="325" text-anchor="middle" class="name">工作碎片</text>

  <rect x="825" y="560" width="250" height="64" class="entity"/>
  <text x="950" y="599" text-anchor="middle" class="name">历史总结记录</text>

  <!-- 关系 -->
  <polygon points="210,200 275,238 210,276 145,238" class="relation"/>
  <text x="210" y="245" text-anchor="middle" class="name">拥有</text>

  <polygon points="470,200 535,238 470,276 405,238" class="relation"/>
  <text x="470" y="245" text-anchor="middle" class="name">拥有</text>

  <polygon points="710,200 775,238 710,276 645,238" class="relation"/>
  <text x="710" y="245" text-anchor="middle" class="name">拥有</text>

  <polygon points="950,200 1015,238 950,276 885,238" class="relation"/>
  <text x="950" y="245" text-anchor="middle" class="name">拥有</text>

  <polygon points="395,406 460,444 395,482 330,444" class="relation"/>
  <text x="395" y="451" text-anchor="middle" class="name">包含</text>

  <polygon points="780,406 845,444 780,482 715,444" class="relation"/>
  <text x="780" y="451" text-anchor="middle" class="name">包含</text>

  <polygon points="705,512 770,550 705,588 640,550" class="relation"/>
  <text x="705" y="557" text-anchor="middle" class="name">生成</text>

  <!-- 连线 -->
  <line x1="530" y1="156" x2="250" y2="200" class="line"/>
  <line x1="210" y1="276" x2="210" y2="286" class="line"/>

  <line x1="575" y1="156" x2="485" y2="200" class="line"/>
  <line x1="470" y1="276" x2="565" y2="286" class="line"/>

  <line x1="605" y1="156" x2="710" y2="200" class="line"/>
  <line x1="710" y1="276" x2="950" y2="286" class="line"/>

  <line x1="650" y1="156" x2="950" y2="200" class="line"/>
  <line x1="950" y1="276" x2="950" y2="560" class="line"/>

  <line x1="310" y1="318" x2="395" y2="406" class="line"/>
  <line x1="460" y1="444" x2="492" y2="318" class="line"/>

  <line x1="688" y1="318" x2="780" y2="406" class="line"/>
  <line x1="845" y1="444" x2="875" y2="318" class="line"/>

  <line x1="620" y1="350" x2="705" y2="512" class="line"/>
  <line x1="770" y1="550" x2="825" y2="592" class="line"/>

  <!-- 基数 -->
  <text x="255" y="191" class="card">1</text>
  <text x="220" y="292" class="card">N</text>

  <text x="500" y="191" class="card">1</text>
  <text x="458" y="287" class="card">N</text>

  <text x="690" y="191" class="card">1</text>
  <text x="720" y="287" class="card">N</text>

  <text x="944" y="191" class="card">1</text>
  <text x="962" y="287" class="card">N</text>

  <text x="328" y="420" class="card">1</text>
  <text x="470" y="438" class="card">N</text>

  <text x="712" y="420" class="card">1</text>
  <text x="852" y="438" class="card">N</text>

  <text x="635" y="500" class="card">1</text>
  <text x="774" y="542" class="card">N</text>
</svg>
