<svg xmlns="http://www.w3.org/2000/svg" width="1120" height="760" viewBox="0 0 1120 760">
  <defs>
    <marker id="arrow" markerWidth="10" markerHeight="10" refX="9" refY="3" orient="auto" markerUnits="strokeWidth">
      <path d="M0,0 L10,3 L0,6 Z" fill="#000000"/>
    </marker>
    <style>
      .title { font-family: "Microsoft YaHei", "Noto Sans SC", Arial, sans-serif; font-size: 24px; font-weight: 700; fill: #000; }
      .label { font-family: "Microsoft YaHei", "Noto Sans SC", Arial, sans-serif; font-size: 19px; font-weight: 700; fill: #000; }
      .text { font-family: "Microsoft YaHei", "Noto Sans SC", Arial, sans-serif; font-size: 15px; fill: #000; }
      .small { font-family: "Microsoft YaHei", "Noto Sans SC", Arial, sans-serif; font-size: 13px; fill: #000; }
      .box { fill: #fff; stroke: #000; stroke-width: 1.8; rx: 12; ry: 12; }
      .layer { fill: #fff; stroke: #000; stroke-width: 2.1; rx: 14; ry: 14; }
      .line { stroke: #000; stroke-width: 1.8; fill: none; marker-end: url(#arrow); }
      .dash { stroke: #000; stroke-width: 1.7; fill: none; stroke-dasharray: 7 6; marker-end: url(#arrow); }
    </style>
  </defs>

  <text x="560" y="42" text-anchor="middle" class="title">工作总结智能生成系统总体架构图</text>

  <rect x="145" y="72" width="830" height="620" class="layer"/>
  <text x="560" y="102" text-anchor="middle" class="label">工作总结智能生成系统</text>

  <rect x="190" y="132" width="740" height="92" class="layer"/>
  <text x="560" y="160" text-anchor="middle" class="label">表示层（Vue 3 前端）</text>
  <rect x="220" y="183" width="120" height="28" class="box"/>
  <text x="280" y="202" text-anchor="middle" class="text">登录注册</text>
  <rect x="355" y="183" width="145" height="28" class="box"/>
  <text x="427.5" y="202" text-anchor="middle" class="text">碎片记录管理</text>
  <rect x="515" y="183" width="120" height="28" class="box"/>
  <text x="575" y="202" text-anchor="middle" class="text">总结生成</text>
  <rect x="650" y="183" width="120" height="28" class="box"/>
  <text x="710" y="202" text-anchor="middle" class="text">历史回看</text>
  <rect x="785" y="183" width="110" height="28" class="box"/>
  <text x="840" y="202" text-anchor="middle" class="text">系统设置</text>

  <rect x="190" y="252" width="740" height="76" class="layer"/>
  <text x="560" y="280" text-anchor="middle" class="label">接口层（Spring Boot REST API）</text>
  <text x="560" y="307" text-anchor="middle" class="text">接收前端请求、解析参数并返回统一响应结果</text>

  <rect x="190" y="356" width="740" height="126" class="layer"/>
  <text x="560" y="384" text-anchor="middle" class="label">业务层（Service）</text>
  <rect x="220" y="418" width="120" height="34" class="box"/>
  <text x="280" y="440" text-anchor="middle" class="text">用户管理</text>
  <rect x="358" y="418" width="155" height="34" class="box"/>
  <text x="435.5" y="440" text-anchor="middle" class="text">业务校验与归属控制</text>
  <rect x="531" y="418" width="125" height="34" class="box"/>
  <text x="593.5" y="440" text-anchor="middle" class="text">周报输入构造</text>
  <rect x="674" y="418" width="221" height="34" class="box"/>
  <text x="784.5" y="440" text-anchor="middle" class="text">历史结果写回与管理</text>

  <rect x="190" y="510" width="355" height="126" class="layer"/>
  <text x="367.5" y="538" text-anchor="middle" class="label">数据层（MyBatis-Plus + MySQL）</text>
  <rect x="214" y="573" width="82" height="30" class="box"/>
  <text x="255" y="593" text-anchor="middle" class="small">users</text>
  <rect x="308" y="573" width="98" height="30" class="box"/>
  <text x="357" y="593" text-anchor="middle" class="small">memo_folders</text>
  <rect x="418" y="573" width="103" height="30" class="box"/>
  <text x="469.5" y="593" text-anchor="middle" class="small">memo_week_records</text>

  <rect x="575" y="510" width="355" height="126" class="layer"/>
  <text x="752.5" y="538" text-anchor="middle" class="label">模型调用层（LLM Service）</text>
  <rect x="604" y="573" width="96" height="30" class="box"/>
  <text x="652" y="593" text-anchor="middle" class="small">提示词组织</text>
  <rect x="712" y="573" width="126" height="30" class="box"/>
  <text x="775" y="593" text-anchor="middle" class="small">OpenAI兼容请求</text>
  <rect x="850" y="573" width="52" height="30" class="box"/>
  <text x="876" y="593" text-anchor="middle" class="small">解析结果</text>

  <rect x="24" y="270" width="86" height="58" class="box"/>
  <text x="67" y="306" text-anchor="middle" class="label">用户</text>

  <rect x="20" y="552" width="100" height="62" class="box"/>
  <text x="70" y="579" text-anchor="middle" class="text">Flyway</text>
  <text x="70" y="600" text-anchor="middle" class="small">迁移机制</text>

  <rect x="1000" y="275" width="96" height="88" class="box"/>
  <text x="1048" y="304" text-anchor="middle" class="text">外部大语言</text>
  <text x="1048" y="326" text-anchor="middle" class="text">模型服务</text>
  <text x="1048" y="348" text-anchor="middle" class="small">OpenAI兼容接口</text>

  <line x1="110" y1="299" x2="190" y2="299" class="line"/>
  <line x1="560" y1="224" x2="560" y2="252" class="line"/>
  <line x1="560" y1="328" x2="560" y2="356" class="line"/>
  <line x1="425" y1="482" x2="425" y2="510" class="line"/>
  <line x1="695" y1="482" x2="695" y2="510" class="line"/>
  <line x1="930" y1="319" x2="1000" y2="319" class="line"/>
  <line x1="120" y1="583" x2="190" y2="583" class="dash"/>

  <text x="952" y="304" class="small">HTTP</text>
  <text x="126" y="571" class="small">版本化迁移</text>
</svg>
