<svg xmlns="http://www.w3.org/2000/svg" width="1100" height="620" viewBox="0 0 1100 620">
  <defs>
    <marker id="arrow" markerWidth="10" markerHeight="10" refX="9" refY="3" orient="auto" markerUnits="strokeWidth">
      <path d="M0,0 L10,3 L0,6 Z" fill="#000"/>
    </marker>
    <style>
      .title { font-family: "Microsoft YaHei","Noto Sans SC",Arial,sans-serif; font-size: 24px; font-weight: 700; fill: #000; }
      .label { font-family: "Microsoft YaHei","Noto Sans SC",Arial,sans-serif; font-size: 16px; font-weight: 700; fill: #000; }
      .text { font-family: "Microsoft YaHei","Noto Sans SC",Arial,sans-serif; font-size: 14px; fill: #000; }
      .box { fill: #fff; stroke: #000; stroke-width: 1.8; rx: 12; ry: 12; }
      .line { stroke: #000; stroke-width: 1.8; fill: none; marker-end: url(#arrow); }
    </style>
  </defs>

  <text x="550" y="38" text-anchor="middle" class="title">系统功能结构图</text>

  <rect x="400" y="70" width="300" height="52" class="box"/>
  <text x="550" y="102" text-anchor="middle" class="label">工作总结智能生成辅助系统</text>

  <rect x="50" y="190" width="170" height="50" class="box"/>
  <text x="135" y="221" text-anchor="middle" class="label">用户注册登录模块</text>

  <rect x="255" y="190" width="170" height="50" class="box"/>
  <text x="340" y="221" text-anchor="middle" class="label">碎片记录管理模块</text>

  <rect x="460" y="190" width="180" height="50" class="box"/>
  <text x="550" y="221" text-anchor="middle" class="label">工作总结智能生成模块</text>

  <rect x="675" y="190" width="170" height="50" class="box"/>
  <text x="760" y="221" text-anchor="middle" class="label">历史记录管理模块</text>

  <rect x="880" y="190" width="170" height="50" class="box"/>
  <text x="965" y="221" text-anchor="middle" class="label">个性化配置模块</text>

  <rect x="210" y="340" width="105" height="44" class="box"/>
  <text x="262.5" y="368" text-anchor="middle" class="text">文件夹管理</text>

  <rect x="330" y="340" width="105" height="44" class="box"/>
  <text x="382.5" y="368" text-anchor="middle" class="text">周记录管理</text>

  <rect x="450" y="340" width="110" height="44" class="box"/>
  <text x="505" y="368" text-anchor="middle" class="text">工作碎片管理</text>

  <rect x="450" y="470" width="130" height="44" class="box"/>
  <text x="515" y="498" text-anchor="middle" class="text">自由文本总结生成</text>

  <rect x="600" y="470" width="150" height="44" class="box"/>
  <text x="675" y="498" text-anchor="middle" class="text">基于周记录的周报生成</text>

  <line x1="550" y1="122" x2="135" y2="190" class="line"/>
  <line x1="550" y1="122" x2="340" y2="190" class="line"/>
  <line x1="550" y1="122" x2="550" y2="190" class="line"/>
  <line x1="550" y1="122" x2="760" y2="190" class="line"/>
  <line x1="550" y1="122" x2="965" y2="190" class="line"/>

  <line x1="340" y1="240" x2="262.5" y2="340" class="line"/>
  <line x1="340" y1="240" x2="382.5" y2="340" class="line"/>
  <line x1="340" y1="240" x2="505" y2="340" class="line"/>

  <line x1="550" y1="240" x2="515" y2="470" class="line"/>
  <line x1="550" y1="240" x2="675" y2="470" class="line"/>
</svg>
